<?xml version="1.0" encoding="utf-8"?>
<svg fill="currentColor" viewBox="0 0 32 32" xmlns="http://www.w3.org/2000/svg">
<path d="M23,7h-3c-.83,1.34-1.65,3.91-1.91,7h-4.19c-.26-3.09-1.08-5.66-1.91-7h-3c-1,1.62-2,5.03-2,9s1,7.38,2,9h3c.83-1.34,1.65-3.91,1.91-7h4.19c.26,3.09,1.08,5.66,1.91,7h3c1-1.62,2-5.03,2-9s-1-7.38-2-9Z"/>
<path d="M28,9h-3.01c1.05,1.84,2.01,3.55,2.01,7s-.95,5.16-2,7h3c1-1.26,2-3.91,2-7s-1-5.74-2-7Z"/>
<path d="M7,9h-3c-1,1.26-2,3.91-2,7s1,5.74,2,7h3.01c-1.05-1.84-2.01-3.55-2.01-7s.95-5.16,2-7Z"/>
</svg>