<?xml version="1.0" encoding="UTF-8" standalone="yes"?>
<svg xmlns="http://www.w3.org/2000/svg" viewBox="0 0 32 32" fill="currentColor">
  <path d="m13.72,7.9l-1.19-3.65h-5.18l-1.61,4.91,3.12,2.26,4.86-3.52ZM2,20.68l1.6-4.93h3.86l1.85,5.7-3.11,2.27-4.2-3.05Zm9.81,7.11l1.19-3.65h6l1.19,3.65-4.18,3.05-4.2-3.05ZM24.65,4.25l1.61,4.91-3.11,2.27-4.86-3.53,1.18-3.65h5.18Zm3.75,11.51h-3.86l-1.85,5.7,3.11,2.27,4.2-3.05-1.6-4.93Zm-10.81-5.75l3.75,2.72h-.01l1.6,1.16-.61,1.88-1.43,4.4-.61,1.87h-8.59l-.61-1.88-1.43-4.4-.61-1.87,1.6-1.17,3.75-2.72,1.6-1.16,1.6,1.17Zm-1.6,8.23c1.16,0,2.1-.95,2.1-2.1s-.95-2.1-2.1-2.1-2.1.95-2.1,2.1.95,2.1,2.1,2.1Z"/>
</svg>